<svg width="41" height="31" viewBox="0 0 41 31" fill="none" xmlns="http://www.w3.org/2000/svg">
<g clip-path="url(#clip0_180_536)">
<path d="M17.3519 12.1013C17.3519 10.7485 18.4348 9.64864 19.7668 9.64864H20.9743C22.3062 9.64864 23.3891 10.7485 23.3891 12.1013V12.2392C23.3891 13.0747 22.9703 13.8526 22.2798 14.301L20.6875 15.3395C20.22 15.6448 19.8354 16.0644 19.569 16.5599C19.3027 17.0554 19.1631 17.6109 19.1631 18.1754V18.2328C19.1631 18.9111 19.7027 19.4592 20.3705 19.4592C21.0384 19.4592 21.578 18.9111 21.578 18.2328V18.1792C21.578 17.8649 21.7365 17.5737 21.993 17.4051L23.5854 16.3665C24.9664 15.4621 25.804 13.9101 25.804 12.2392V12.1013C25.804 9.39188 23.642 7.19601 20.9743 7.19601H19.7668C17.0991 7.19601 14.937 9.39188 14.937 12.1013C14.937 12.7796 15.4766 13.3276 16.1445 13.3276C16.8123 13.3276 17.3519 12.7796 17.3519 12.1013ZM20.3705 24.3644C20.7708 24.3644 21.1547 24.2029 21.4378 23.9154C21.7208 23.628 21.8798 23.2381 21.8798 22.8315C21.8798 22.425 21.7208 22.0351 21.4378 21.7476C21.1547 21.4601 20.7708 21.2986 20.3705 21.2986C19.9702 21.2986 19.5863 21.4601 19.3033 21.7476C19.0202 22.0351 18.8612 22.425 18.8612 22.8315C18.8612 23.2381 19.0202 23.628 19.3033 23.9154C19.5863 24.2029 19.9702 24.3644 20.3705 24.3644Z" fill="#696F79"/>
</g>
<path d="M12.3741 28.0907C16.4025 29.5829 21.0091 29.9158 25.3371 29.0276C29.6652 28.1394 33.4202 26.0905 35.9036 23.2621C38.387 20.4336 39.4299 17.018 38.8382 13.6507C38.2465 10.2833 36.0606 7.19341 32.687 4.95559C29.3134 2.71777 24.9817 1.48439 20.4976 1.48485C16.0136 1.48531 11.6823 2.71957 8.30951 4.95809C4.93669 7.1966 2.75186 10.287 2.16139 13.6544C1.57092 17.0219 2.615 20.4372 5.09943 23.2652M12.3741 28.0907L2 29.5138L5.09943 23.2652M12.3741 28.0907H12.3884M5.09943 23.2652L5.10228 23.2609" stroke="#696F79" stroke-width="2.5" stroke-linecap="round" stroke-linejoin="round"/>
<defs>
<clipPath id="clip0_180_536">
<rect width="12.0745" height="19.621" fill="white" transform="translate(14.3333 5.9697)"/>
</clipPath>
</defs>
</svg>
